<svg width="23" height="20" viewBox="0 0 23 20" fill="none" xmlns="http://www.w3.org/2000/svg">
<path d="M11.588 12.106C12.6524 12.106 13.5152 11.2428 13.5152 10.178C13.5152 9.11311 12.6524 8.24988 11.588 8.24988C10.5236 8.24988 9.66077 9.11311 9.66077 10.178C9.66077 11.2428 10.5236 12.106 11.588 12.106Z" fill="#00D8FF"/>
<path d="M11.5877 14.5953C8.88114 14.5953 6.51624 14.2765 4.74641 13.6696C3.59852 13.2779 2.62338 12.7555 1.9285 12.1602C1.19139 11.5303 0.799805 10.8428 0.799805 10.1783C0.799805 8.90318 2.19724 7.65491 4.54294 6.84066C6.46249 6.17236 8.9656 5.7998 11.5839 5.7998C14.1561 5.7998 16.6246 6.16084 18.5327 6.82146C19.6498 7.20554 20.5904 7.70484 21.2584 8.25792C21.984 8.86477 22.3679 9.52923 22.3679 10.1783C22.3679 11.5034 20.8054 12.8438 18.287 13.6773C16.5056 14.2688 14.1254 14.5953 11.5877 14.5953ZM11.5877 6.7216C9.1038 6.7216 6.64677 7.08263 4.85007 7.70869C2.69249 8.46148 1.72503 9.49082 1.72503 10.1783C1.72503 10.8927 2.76543 12.0181 5.04586 12.7978C6.71972 13.37 8.98479 13.6735 11.5877 13.6735C14.0294 13.6735 16.306 13.3662 17.999 12.8016C20.3678 12.0142 21.4504 10.8889 21.4504 10.1783C21.4504 9.81345 21.174 9.38328 20.671 8.96463C20.0913 8.48069 19.2467 8.03899 18.2371 7.68948C16.4212 7.06727 14.0601 6.7216 11.5877 6.7216Z" fill="#00D8FF"/>
<path d="M7.21529 19.7877C6.8237 19.7877 6.47818 19.7032 6.1864 19.5342C5.08458 18.8966 4.70067 17.0607 5.1652 14.6218C5.54527 12.6207 6.47434 10.2702 7.78347 8.00025C9.06958 5.77258 10.6129 3.81377 12.137 2.48869C13.0277 1.71284 13.9299 1.1444 14.7438 0.844821C15.6306 0.518352 16.3984 0.518352 16.959 0.84098C18.1069 1.5016 18.4869 3.52955 17.9494 6.12593C17.5694 7.96952 16.6633 10.1933 15.3964 12.3941C14.0451 14.737 12.5862 16.6267 11.1773 17.8596C10.2635 18.6585 9.32296 19.2423 8.463 19.5457C8.01382 19.707 7.59152 19.7877 7.21529 19.7877ZM8.1789 8.23069L8.57817 8.46114C7.33814 10.612 6.42059 12.9203 6.06739 14.7946C5.64125 17.0415 6.05203 18.3935 6.64326 18.7353C6.78914 18.8198 6.9811 18.8659 7.21529 18.8659C7.97927 18.8659 9.18091 18.382 10.5707 17.1683C11.9028 16.0045 13.2964 14.1916 14.5979 11.9371C15.8187 9.82079 16.6864 7.69298 17.0473 5.94541C17.5502 3.49882 17.1164 2.0009 16.4983 1.64371C16.1835 1.46319 15.6729 1.48624 15.0586 1.71284C14.3484 1.97402 13.546 2.48485 12.7398 3.18771C11.2924 4.4475 9.81437 6.32181 8.57817 8.46498L8.1789 8.23069Z" fill="#00D8FF"/>
<path d="M15.9606 19.7994C14.9164 19.7994 13.5919 19.1695 12.2098 17.9789C10.6665 16.65 9.0963 14.672 7.78332 12.402C6.49338 10.1744 5.572 7.85836 5.18425 5.87266C4.95774 4.71274 4.91551 3.64883 5.0614 2.79233C5.22264 1.85902 5.60271 1.19456 6.16706 0.868089C7.31111 0.203629 9.25754 0.887293 11.2385 2.65022C12.6436 3.89849 14.1179 5.79584 15.3886 7.99279C16.7438 10.3357 17.6537 12.5441 18.0146 14.38C18.2487 15.5707 18.2871 16.6769 18.1221 17.5756C17.9455 18.532 17.5462 19.2118 16.9703 19.5459C16.6824 19.7149 16.3407 19.7994 15.9606 19.7994ZM8.58186 11.9411C9.82573 14.092 11.3691 16.0393 12.8126 17.2799C14.544 18.7701 15.9184 19.0927 16.5135 18.747C17.1316 18.3899 17.5846 16.9265 17.1162 14.5606C16.7707 12.8245 15.8992 10.7121 14.5939 8.45752C13.3692 6.34124 11.9603 4.52454 10.6281 3.34157C8.7623 1.68234 7.24969 1.30978 6.63159 1.66698C6.31678 1.84749 6.0826 2.30455 5.97126 2.94981C5.84457 3.69492 5.88297 4.64744 6.09028 5.69598C6.45883 7.58182 7.34183 9.79797 8.58186 11.9411Z" fill="#00D8FF"/>
</svg>
