<svg width="22" height="22" viewBox="0 0 22 22" fill="none" xmlns="http://www.w3.org/2000/svg">
<path d="M5.26174 14.6666C5.36257 14.2175 5.17924 13.5758 4.85841 13.255L2.63091 11.0275C1.93424 10.3308 1.65924 9.58831 1.86091 8.94665C2.07174 8.30498 2.72257 7.86498 3.69424 7.69998L6.55424 7.22331C6.96674 7.14998 7.47091 6.78331 7.66341 6.40748L9.24007 3.24498C9.69841 2.33748 10.3217 1.83331 11.0001 1.83331C11.6784 1.83331 12.3017 2.33748 12.7601 3.24498L14.3367 6.40748C14.4559 6.64581 14.7034 6.87498 14.9692 7.03081L5.09674 16.9033C4.96841 17.0316 4.74841 16.9125 4.78507 16.7291L5.26174 14.6666Z" fill="#CAC5FE"/>
<path d="M17.1417 13.255C16.8117 13.585 16.6283 14.2175 16.7383 14.6667L17.3708 17.4258C17.6367 18.5717 17.4717 19.4333 16.9033 19.8458C16.6742 20.0108 16.3992 20.0933 16.0783 20.0933C15.6108 20.0933 15.0608 19.9192 14.4558 19.5617L11.77 17.9667C11.3483 17.7192 10.6516 17.7192 10.23 17.9667L7.54415 19.5617C6.52665 20.1575 5.65582 20.2583 5.09665 19.8458C4.88582 19.69 4.72998 19.4792 4.62915 19.2042L15.7758 8.05749C16.1975 7.63582 16.7933 7.44332 17.3708 7.54415L18.2966 7.69999C19.2683 7.86499 19.9191 8.30499 20.13 8.94665C20.3316 9.58832 20.0566 10.3308 19.36 11.0275L17.1417 13.255Z" fill="#CAC5FE"/>
</svg>
