<svg width="24" height="22" viewBox="0 0 24 22" fill="none" xmlns="http://www.w3.org/2000/svg">
<path fill-rule="evenodd" clip-rule="evenodd" d="M11.5868 4.2843C8.65282 4.2843 6.81959 5.77672 6.08578 8.76155C7.18606 7.26913 8.46959 6.70959 9.93635 7.08247C10.7732 7.29517 11.3716 7.91296 12.0334 8.59695C13.1122 9.71075 14.3608 10.9997 17.0873 10.9997C20.0209 10.9997 21.8545 9.50731 22.5879 6.52292C21.4881 8.01534 20.2045 8.57489 18.7378 8.20156C17.9005 7.98886 17.3021 7.37107 16.6402 6.68752C15.5615 5.57284 14.3133 4.2843 11.5868 4.2843ZM6.08578 10.9997C3.15225 10.9997 1.31859 12.4921 0.585205 15.477C1.68549 13.9846 2.96902 13.425 4.43535 13.7979C5.27263 14.0106 5.87106 14.6284 6.53287 15.3124C7.6116 16.4262 8.85977 17.7152 11.5868 17.7152C14.5203 17.7152 16.354 16.2232 17.0873 13.2384C15.9871 14.7308 14.7035 15.2903 13.2368 14.9174C12.3999 14.7043 11.8015 14.0865 11.1397 13.403C10.0609 12.2892 8.81235 10.9997 6.08578 10.9997Z" fill="#38BDF8"/>
</svg>
