<svg width="40" height="34" viewBox="0 0 40 34" fill="none" xmlns="http://www.w3.org/2000/svg">
<path d="M15.8913 4.74266H24.0294C24.3471 4.74266 24.6623 4.75592 24.9741 4.78188C25.7214 4.84368 26.4396 4.48248 26.8135 3.83231C27.5107 2.62003 26.7147 1.08801 25.3209 0.970624C24.8948 0.934786 24.4642 0.916443 24.0291 0.916443H15.9469C7.50432 0.916443 0.376479 7.82333 0.435174 16.2659C0.463958 20.4316 2.16613 24.2005 4.89998 26.9344C7.65755 29.6919 11.468 31.3964 15.6763 31.3964H24.0291C24.4642 31.3964 24.8951 31.378 25.3209 31.3422C26.7147 31.2245 27.5105 29.6928 26.8135 28.4805C26.4396 27.8303 25.7214 27.4691 24.9741 27.5309C24.6623 27.5569 24.3468 27.5701 24.0291 27.5701H15.6763C9.2886 27.5701 4.11042 22.298 4.26449 15.8796C4.41405 9.64853 9.65912 4.74266 15.8913 4.74266Z" fill="url(#paint0_linear_28002_367)"/>
<path d="M4.83563 24.2369L2.08428 31.2683C1.6418 32.3987 2.82418 33.4806 3.91118 32.9402L11.6229 29.105L4.83563 24.2369Z" fill="#FFC19E"/>
<path d="M30.3098 9.89854C29.8314 9.41826 29.293 8.9913 28.71 8.62897C28.3316 8.39306 27.8846 8.32336 27.45 8.43228C27.0141 8.54177 26.65 8.81719 26.4248 9.20831C26.2835 9.45692 26.2087 9.73628 26.2087 10.0159C26.2087 10.5893 26.5027 11.1162 26.9957 11.4249C28.6423 12.4529 29.6252 14.2223 29.6252 16.1575C29.6252 18.0919 28.6417 19.861 26.9946 20.8893C26.2349 21.3656 25.9855 22.34 26.4265 23.1084C26.7197 23.6152 27.2658 23.9302 27.8513 23.9302C28.1544 23.9302 28.4507 23.8461 28.7072 23.6866C31.333 22.059 32.9003 19.2441 32.9003 16.1575C32.9008 13.7919 31.9806 11.5694 30.3098 9.89854Z" fill="#DDDFFF"/>
<path d="M25.1691 18.436C23.91 18.436 22.8893 17.4153 22.8893 16.1561C22.8893 14.897 23.91 13.8763 25.1691 13.8763C26.4282 13.8763 27.4489 14.897 27.4489 16.1561C27.4489 17.4153 26.4282 18.436 25.1691 18.436Z" fill="white"/>
<path d="M39.2676 16.1581C39.2676 21.6346 36.3816 26.4338 32.048 29.1205C31.7368 29.3133 31.3931 29.403 31.053 29.403C30.3885 29.403 29.74 29.0562 29.3839 28.4399C28.8638 27.5346 29.1753 26.3951 30.0611 25.8398C33.2905 23.8238 35.4414 20.238 35.4414 16.1581C35.4414 12.0782 33.2905 8.48932 30.0611 6.47335C29.4674 6.10086 29.1302 5.46537 29.1302 4.81379C29.1302 4.49604 29.2137 4.17181 29.3839 3.87325C29.9231 2.93581 31.1335 2.62456 32.0514 3.19599C33.0529 3.81879 33.9774 4.55079 34.8056 5.38212C37.5629 8.1394 39.2676 11.9498 39.2676 16.1581Z" fill="url(#paint1_linear_28002_367)"/>
<defs>
<linearGradient id="paint0_linear_28002_367" x1="26.1551" y1="11.3383" x2="8.64272" y2="27.7865" gradientUnits="userSpaceOnUse">
<stop stop-color="white"/>
<stop offset="1" stop-color="#FFC19E"/>
</linearGradient>
<linearGradient id="paint1_linear_28002_367" x1="39.622" y1="29.8598" x2="30.6457" y2="30.4563" gradientUnits="userSpaceOnUse">
<stop stop-color="#D5D5FF"/>
<stop offset="0.991615" stop-color="#FFDAC8"/>
</linearGradient>
</defs>
</svg>
