<svg width="25" height="25" viewBox="0 0 25 25" fill="none" xmlns="http://www.w3.org/2000/svg">
<path d="M4.41 17.6802C4.22 17.6802 4.03 17.6102 3.88 17.4602C2.51 16.0802 1.75 14.2602 1.75 12.3302C1.75 8.32023 5 5.06023 9 5.06023L15.07 5.08023L13.98 4.04023C13.68 3.75023 13.67 3.28023 13.96 2.98023C14.25 2.68023 14.72 2.67023 15.02 2.96023L17.46 5.30023C17.68 5.51023 17.75 5.84023 17.64 6.12023C17.53 6.40023 17.25 6.59023 16.94 6.59023L9 6.57023C5.83 6.57023 3.25 9.16023 3.25 12.3402C3.25 13.8702 3.85 15.3202 4.94 16.4102C5.23 16.7002 5.23 17.1802 4.94 17.4702C4.79 17.6102 4.6 17.6802 4.41 17.6802Z" fill="white"/>
<path d="M10.4999 22.2502C10.3099 22.2502 10.1299 22.1802 9.9799 22.0402L7.5399 19.7002C7.3199 19.4902 7.2499 19.1602 7.3599 18.8802C7.4699 18.6002 7.7499 18.4102 8.0599 18.4102L16.0099 18.4302C19.1799 18.4302 21.7599 15.8402 21.7599 12.6602C21.7599 11.1302 21.1599 9.68018 20.0699 8.59018C19.7799 8.30018 19.7799 7.82018 20.0699 7.53018C20.3599 7.24018 20.8399 7.24018 21.1299 7.53018C22.4999 8.91018 23.2599 10.7302 23.2599 12.6602C23.2599 16.6702 20.0099 19.9302 16.0099 19.9302L9.9399 19.9102L11.0299 20.9502C11.3299 21.2402 11.3399 21.7102 11.0499 22.0102C10.8899 22.1702 10.6999 22.2502 10.4999 22.2502Z" fill="white"/>
<path d="M9.5 16.0002H15.5C17.42 16.0002 19 14.4302 19 12.5002C19 10.5802 17.43 9.00018 15.5 9.00018H9.5C7.58 9.00018 6 10.5702 6 12.5002C6 14.4302 7.57 16.0002 9.5 16.0002Z" fill="white" fill-opacity="0.8"/>
</svg>
