<svg width="20" height="18" viewBox="0 0 20 18" fill="none" xmlns="http://www.w3.org/2000/svg">
<path fill-rule="evenodd" clip-rule="evenodd" d="M5 18C3.67392 18 2.40215 17.4732 1.46447 16.5355C0.526784 15.5979 0 14.3261 0 13V10C0 9.73478 0.105357 9.48043 0.292893 9.29289C0.48043 9.10536 0.734784 9 1 9C1.26522 9 1.51957 9.10536 1.70711 9.29289C1.89464 9.48043 2 9.73478 2 10V13C2 13.7956 2.31607 14.5587 2.87868 15.1213C3.44129 15.6839 4.20435 16 5 16H15C15.7956 16 16.5587 15.6839 17.1213 15.1213C17.6839 14.5587 18 13.7956 18 13V10C18 9.73478 18.1054 9.48043 18.2929 9.29289C18.4804 9.10536 18.7348 9 19 9C19.2652 9 19.5196 9.10536 19.7071 9.29289C19.8946 9.48043 20 9.73478 20 10V13C20 14.3261 19.4732 15.5979 18.5355 16.5355C17.5979 17.4732 16.3261 18 15 18H5Z" fill="#D6E0FF"/>
<path fill-rule="evenodd" clip-rule="evenodd" d="M5.28501 6.1C5.19308 6.00608 5.12056 5.89496 5.0716 5.77299C5.02265 5.65102 4.99821 5.5206 4.9997 5.38918C5.00118 5.25777 5.02856 5.12793 5.08026 5.0071C5.13196 4.88627 5.20698 4.77682 5.30101 4.685L9.80101 0.285C9.98785 0.102374 10.2387 0.00012207 10.5 0.00012207C10.7613 0.00012207 11.0122 0.102374 11.199 0.285L15.699 4.685C15.7949 4.77632 15.8717 4.88578 15.925 5.00703C15.9783 5.12828 16.0069 5.2589 16.0093 5.39131C16.0117 5.52372 15.9877 5.65529 15.9388 5.77836C15.8899 5.90144 15.8171 6.01359 15.7245 6.10828C15.6319 6.20298 15.5215 6.27834 15.3995 6.33C15.2776 6.38166 15.1466 6.40859 15.0142 6.40921C14.8817 6.40984 14.7505 6.38415 14.6281 6.33364C14.5057 6.28314 14.3945 6.20882 14.301 6.115L11.5 3.376V12C11.5 12.2652 11.3947 12.5196 11.2071 12.7071C11.0196 12.8946 10.7652 13 10.5 13C10.2348 13 9.98044 12.8946 9.7929 12.7071C9.60537 12.5196 9.50001 12.2652 9.50001 12V3.376L6.70001 6.115C6.60609 6.20693 6.49497 6.27945 6.373 6.32841C6.25103 6.37737 6.12061 6.4018 5.98919 6.40031C5.85778 6.39883 5.72794 6.37145 5.60711 6.31975C5.48628 6.26805 5.37683 6.19303 5.28501 6.099V6.1Z" fill="#D6E0FF"/>
</svg>
